<?xml version="1.0" encoding="UTF-8"?>
<svg xmlns="http://www.w3.org/2000/svg" xmlns:xlink="http://www.w3.org/1999/xlink" width="99pt" height="56pt" viewBox="0 0 99 56" version="1.1">
<g id="surface1">
<path style=" stroke:none;fill-rule:nonzero;fill:rgb(0%,0%,0%);fill-opacity:1;" d="M 48.835938 12.070312 C 48.457031 12.46875 48.085938 13.144531 47.875 13.804688 C 47.820312 13.976562 47.753906 14.148438 47.722656 14.195312 C 47.691406 14.234375 47.566406 14.582031 47.449219 14.972656 C 47.335938 15.351562 47.21875 15.703125 47.1875 15.75 C 47.15625 15.789062 47.015625 16.164062 46.871094 16.566406 C 46.730469 16.972656 46.59375 17.335938 46.5625 17.382812 C 46.515625 17.453125 46.074219 18.714844 46.058594 18.820312 C 46.058594 18.84375 46.035156 18.890625 46.011719 18.9375 C 45.980469 18.976562 45.847656 19.367188 45.710938 19.792969 C 45.570312 20.222656 45.433594 20.585938 45.402344 20.609375 C 45.371094 20.632812 45.230469 21 45.089844 21.429688 C 44.953125 21.855469 44.8125 22.246094 44.773438 22.285156 C 44.703125 22.382812 44.472656 23.054688 44.425781 23.316406 C 44.402344 23.417969 44.324219 23.636719 44.25 23.792969 C 44.171875 23.949219 44.007812 24.367188 43.894531 24.734375 C 43.777344 25.097656 43.652344 25.425781 43.621094 25.472656 C 43.589844 25.511719 43.453125 25.859375 43.320312 26.25 C 43.1875 26.632812 43.042969 27.019531 43.003906 27.105469 C 42.964844 27.191406 42.839844 27.558594 42.726562 27.921875 C 42.609375 28.289062 42.492188 28.613281 42.460938 28.660156 C 42.429688 28.699219 42.292969 29.074219 42.152344 29.476562 C 42.011719 29.882812 41.875 30.246094 41.84375 30.292969 C 41.8125 30.332031 41.6875 30.667969 41.574219 31.035156 C 41.457031 31.398438 41.316406 31.796875 41.261719 31.929688 C 41.207031 32.050781 41.070312 32.441406 40.953125 32.785156 C 40.835938 33.125 40.714844 33.4375 40.683594 33.484375 C 40.652344 33.523438 40.542969 33.800781 40.449219 34.105469 C 40.351562 34.402344 40.203125 34.796875 40.125 34.976562 C 40.039062 35.15625 39.964844 35.351562 39.957031 35.40625 C 39.941406 35.457031 39.917969 35.558594 39.894531 35.621094 C 39.871094 35.683594 39.808594 35.894531 39.753906 36.089844 C 39.699219 36.285156 39.609375 36.507812 39.5625 36.59375 C 39.507812 36.679688 39.351562 37.101562 39.214844 37.527344 C 39.074219 37.957031 38.933594 38.320312 38.910156 38.34375 C 38.820312 38.414062 38.339844 39.914062 38.300781 40.242188 C 38.277344 40.421875 38.253906 40.746094 38.253906 40.972656 C 38.246094 41.355469 38.269531 41.402344 38.617188 41.75 L 38.980469 42.117188 L 39.546875 42.109375 C 40.039062 42.109375 40.1875 42.0625 40.875 41.734375 C 41.679688 41.355469 42.585938 40.910156 43.121094 40.625 C 43.414062 40.46875 48.464844 37.972656 48.882812 37.777344 C 48.988281 37.722656 49.089844 37.667969 49.113281 37.644531 C 49.136719 37.621094 49.230469 37.566406 49.3125 37.511719 C 49.460938 37.433594 49.714844 37.535156 51.402344 38.398438 C 52.460938 38.9375 53.507812 39.464844 53.714844 39.566406 C 54.394531 39.898438 55.238281 40.335938 56.035156 40.746094 C 56.460938 40.972656 56.816406 41.152344 56.832031 41.144531 C 56.847656 41.144531 57.25 41.347656 58.125 41.796875 C 58.726562 42.109375 59.429688 42.28125 59.753906 42.203125 C 59.871094 42.171875 60.148438 41.960938 60.375 41.742188 C 60.785156 41.347656 60.792969 41.332031 60.792969 40.871094 C 60.792969 40.515625 60.699219 40.140625 60.40625 39.277344 C 60.195312 38.65625 60.003906 38.085938 59.980469 38.003906 C 59.917969 37.730469 59.632812 36.945312 59.554688 36.804688 C 59.507812 36.734375 59.253906 36.003906 58.976562 35.195312 C 58.695312 34.378906 58.417969 33.609375 58.363281 33.484375 C 58.300781 33.351562 58.164062 32.96875 58.046875 32.628906 C 57.929688 32.285156 57.816406 31.964844 57.792969 31.929688 C 57.761719 31.882812 57.738281 31.804688 57.722656 31.742188 C 57.699219 31.578125 57.28125 30.378906 57.234375 30.332031 C 57.1875 30.292969 56.777344 29.121094 56.738281 28.925781 C 56.722656 28.863281 56.675781 28.707031 56.625 28.582031 C 56.570312 28.449219 56.4375 28.085938 56.328125 27.765625 C 56.222656 27.449219 56.105469 27.144531 56.074219 27.105469 C 56.035156 27.058594 55.917969 26.707031 55.796875 26.328125 C 55.679688 25.9375 55.5625 25.589844 55.53125 25.550781 C 55.5 25.503906 55.363281 25.121094 55.222656 24.695312 C 55.085938 24.265625 54.945312 23.878906 54.914062 23.839844 C 54.867188 23.777344 54.597656 23.03125 54.558594 22.84375 C 54.550781 22.8125 54.542969 22.78125 54.535156 22.765625 C 54.519531 22.757812 54.503906 22.664062 54.480469 22.5625 C 54.464844 22.453125 54.417969 22.335938 54.378906 22.292969 C 54.339844 22.246094 54.234375 21.957031 54.140625 21.660156 C 54.039062 21.359375 53.886719 20.9375 53.792969 20.726562 C 53.605469 20.316406 53.539062 20.105469 53.484375 19.824219 C 53.429688 19.546875 53.273438 19.109375 53.175781 18.9375 C 53.121094 18.851562 52.980469 18.488281 52.863281 18.121094 C 52.75 17.757812 52.625 17.421875 52.59375 17.382812 C 52.5625 17.335938 52.453125 17.042969 52.363281 16.722656 C 52.269531 16.402344 52.144531 16.03125 52.082031 15.90625 C 52.027344 15.773438 51.875 15.351562 51.742188 14.972656 C 51.613281 14.582031 51.449219 14.15625 51.386719 14.015625 C 51.316406 13.875 51.246094 13.664062 51.234375 13.550781 C 51.164062 13.152344 50.808594 12.546875 50.398438 12.109375 C 50.003906 11.691406 49.972656 11.667969 49.609375 11.667969 C 49.246094 11.667969 49.199219 11.691406 48.835938 12.070312 Z M 48.835938 12.070312 "/>
</g>
</svg>
