<?xml version="1.0" standalone="no"?>
<!DOCTYPE svg PUBLIC "-//W3C//DTD SVG 20010904//EN"
 "http://www.w3.org/TR/2001/REC-SVG-20010904/DTD/svg10.dtd">
<svg version="1.0" xmlns="http://www.w3.org/2000/svg"
 width="1280.000000pt" height="720.000000pt" viewBox="0 0 1280.000000 720.000000"
 preserveAspectRatio="xMidYMid meet">

<g transform="translate(0.000000,720.000000) scale(0.100000,-0.100000)"
fill="#000000" stroke="none">
<path d="M6314 5648 c-49 -51 -97 -138 -124 -223 -7 -22 -16 -44 -20 -50 -4
-5 -20 -50 -35 -100 -15 -49 -30 -94 -34 -100 -4 -5 -22 -53 -41 -105 -18 -52
-36 -99 -40 -105 -6 -9 -63 -171 -65 -185 0 -3 -3 -9 -6 -15 -4 -5 -21 -55
-39 -110 -18 -55 -36 -102 -40 -105 -4 -3 -22 -50 -40 -105 -18 -55 -36 -105
-41 -110 -9 -13 -39 -99 -45 -133 -3 -13 -13 -41 -23 -61 -10 -20 -31 -74 -46
-121 -15 -47 -31 -89 -35 -95 -4 -5 -22 -50 -39 -100 -17 -49 -36 -99 -41
-110 -5 -11 -21 -58 -36 -105 -15 -47 -30 -89 -34 -95 -4 -5 -22 -53 -40 -105
-18 -52 -36 -99 -40 -105 -4 -5 -20 -48 -35 -95 -15 -47 -33 -98 -40 -115 -7
-16 -25 -66 -40 -110 -15 -44 -31 -84 -35 -90 -4 -5 -18 -41 -30 -80 -13 -38
-32 -89 -42 -112 -11 -23 -21 -48 -22 -55 -2 -7 -5 -20 -8 -28 -3 -8 -11 -35
-18 -60 -7 -25 -19 -54 -25 -65 -7 -11 -27 -65 -45 -120 -18 -55 -36 -102 -39
-105 -12 -9 -74 -202 -79 -244 -3 -23 -6 -65 -6 -94 -1 -49 2 -55 47 -100 l47
-47 73 1 c64 0 83 6 172 48 104 49 221 106 290 143 38 20 691 341 745 366 14
7 27 14 30 17 3 3 15 10 26 17 19 10 52 -3 270 -114 137 -69 272 -137 299
-150 88 -43 197 -99 300 -152 55 -29 101 -52 103 -51 2 0 54 -26 167 -84 78
-40 169 -62 211 -52 15 4 51 31 80 59 53 51 54 53 54 112 0 46 -12 94 -50 205
-27 80 -52 153 -55 164 -8 35 -45 136 -55 154 -6 9 -39 103 -75 207 -36 105
-72 204 -79 220 -8 17 -26 66 -41 110 -15 44 -30 85 -33 90 -4 6 -7 16 -9 24
-3 21 -57 175 -63 181 -6 5 -59 156 -64 181 -2 8 -8 28 -15 44 -7 17 -24 64
-38 105 -14 41 -29 80 -33 85 -5 6 -20 51 -36 100 -15 50 -30 95 -34 100 -4 6
-22 55 -40 110 -18 55 -36 105 -40 110 -6 8 -41 104 -46 128 -1 4 -2 8 -3 10
-2 1 -4 13 -7 26 -2 14 -8 29 -13 35 -5 6 -19 43 -31 81 -13 39 -33 93 -45
120 -24 53 -33 80 -40 116 -7 36 -27 92 -40 114 -7 11 -25 58 -40 105 -15 47
-31 90 -35 95 -4 6 -18 44 -30 85 -12 41 -28 89 -36 105 -7 17 -27 71 -44 120
-17 50 -38 105 -46 123 -9 18 -18 45 -20 60 -9 51 -55 129 -108 185 -51 54
-55 57 -102 57 -47 0 -53 -3 -100 -52z"/>
</g>
</svg>
